<?xml version="1.0" encoding="UTF-8"?>
<svg id="Layer_1" data-name="Layer 1" xmlns="http://www.w3.org/2000/svg" viewBox="0 0 695.91 143.15">
  <defs>
    <style>
      .cls-1 {
        fill: #bd2f2b;
      }

      .cls-2 {
        fill: #f16a2c;
      }
    </style>
  </defs>
  <path class="cls-2" d="M527.71,53.23c-24.83,0-44.96,20.13-44.96,44.96s20.13,44.96,44.96,44.96,44.96-20.13,44.96-44.96-20.13-44.96-44.96-44.96ZM527.71,124.94c-14.77,0-26.75-11.98-26.75-26.75s11.98-26.75,26.75-26.75,26.75,11.98,26.75,26.75-11.98,26.75-26.75,26.75Z"/>
  <path class="cls-1" d="M90.66,0c-5.03,0-9.11,4.08-9.11,9.11v52.94c-7.48-5.54-16.73-8.82-26.75-8.82-24.83,0-44.96,20.13-44.96,44.96s20.13,44.96,44.96,44.96,42.9-18.15,44.8-41.23c.11-.56.17-1.13.17-1.71V9.11c0-5.03-4.08-9.11-9.11-9.11ZM54.8,124.94c-14.77,0-26.75-11.98-26.75-26.75s11.98-26.75,26.75-26.75,26.75,11.98,26.75,26.75-11.98,26.75-26.75,26.75Z"/>
  <rect class="cls-1" x="199" y="54.66" width="18.22" height="89.85" rx="9.11" ry="9.11"/>
  <rect class="cls-1" x="270.71" y="89.85" width="18.22" height="54.66" rx="9.11" ry="9.11"/>
  <path class="cls-1" d="M243.96,53.23c-24.83,0-44.96,20.13-44.96,44.96,0,14.81,7.17,27.95,18.22,36.14v-32.39h.27c-.17-1.22-.27-2.47-.27-3.75,0-14.77,11.98-26.75,26.75-26.75s26.75,11.98,26.75,26.75c0,1.27-.09,2.52-.27,3.75h.27v32.39c11.05-8.19,18.22-21.33,18.22-36.14,0-24.83-20.13-44.96-44.96-44.96Z"/>
  <g>
    <rect class="cls-1" x="142.66" y="89.85" width="45.9" height="16.69" rx="8.35" ry="8.35"/>
    <rect class="cls-1" x="139.22" y="124.94" width="38.29" height="18.22" rx="8.35" ry="8.35"/>
    <path class="cls-1" d="M147.63,53.26c-23.3.89-42.29,19.87-43.18,43.18-.97,25.63,19.52,46.72,44.93,46.72v-18.22c-15.34,0-27.66-12.91-26.69-28.45.83-13.32,11.67-24.16,24.99-24.99,15.55-.96,28.45,11.36,28.45,26.69,0,2.92-.47,5.72-1.33,8.35h18.77c.51-2.71.79-5.49.79-8.35,0-25.41-21.08-45.9-46.72-44.93Z"/>
  </g>
  <rect class="cls-1" x="331.82" y="89.85" width="45.9" height="16.69" rx="8.35" ry="8.35"/>
  <rect class="cls-1" x="328.38" y="124.94" width="38.29" height="18.22" rx="8.35" ry="8.35"/>
  <path class="cls-1" d="M336.79,53.26c-23.3.89-42.29,19.87-43.18,43.18-.97,25.63,19.52,46.72,44.93,46.72v-18.22c-15.34,0-27.66-12.91-26.69-28.45.83-13.32,11.67-24.16,24.99-24.99,15.55-.96,28.45,11.36,28.45,26.69,0,2.92-.47,5.72-1.33,8.35h18.77c.51-2.71.79-5.49.79-8.35,0-25.41-21.08-45.9-46.72-44.93Z"/>
  <path class="cls-2" d="M478.09,98.19c0-24.83-20.13-44.96-44.96-44.96-10.02,0-19.27,3.28-26.75,8.82V9.11c0-5.03-4.08-9.11-9.11-9.11s-9.11,4.08-9.11,9.11v124.94c0,5.03,4.08,9.11,9.11,9.11s8.95-3.93,9.09-8.83c0,0,0,0,.01.01v-36.14c0-14.77,11.98-26.75,26.75-26.75s26.75,11.98,26.75,26.75v36.14s0,0,.01-.01c.15,4.9,4.16,8.83,9.09,8.83s9.11-4.08,9.11-9.11v-35.09c0-.1-.01-.19-.01-.29,0-.16.01-.32.01-.48Z"/>
  <rect class="cls-2" x="577.33" y="53.23" width="18.22" height="89.93" rx="9.11" ry="9.11"/>
  <rect class="cls-2" x="677.7" y="53.23" width="18.22" height="89.93" rx="9.11" ry="9.11"/>
  <rect class="cls-2" x="649.04" y="89.85" width="18.22" height="53.31" rx="9.11" ry="9.11"/>
  <path class="cls-2" d="M622.29,53.23c-24.83,0-44.96,20.13-44.96,44.96,0,14.81,7.17,27.95,18.22,36.14v-36.14c0-14.77,11.98-26.75,26.75-26.75s26.75,11.98,26.75,26.75v36.14c11.05-8.19,18.22-21.33,18.22-36.14,0-24.83-20.13-44.96-44.96-44.96Z"/>
  <g>
    <circle class="cls-1" cx="131.92" cy="37.36" r="8.8"/>
    <circle class="cls-1" cx="168.88" cy="37.36" r="8.8"/>
  </g>
  <circle class="cls-1" cx="320.49" cy="37.36" r="8.8"/>
  <circle class="cls-1" cx="357.45" cy="37.36" r="8.8"/>
</svg>